  0
SECTION
  2
BLOCKS
  0
ENDSEC
  0
SECTION
  2
ENTITIES
  0
LINE
  8
0
 10
228.2
 20
260.3
 11
148.2
 21
260.3
  0
LINE
  8
0
 10
148.2
 20
260.3
 11
148.2
 21
140.3
  0
LINE
  8
0
 10
148.2
 20
140.3
 11
228.2
 21
140.3
  0
LINE
  8
0
 10
228.2
 20
140.3
 11
228.2
 21
260.3
  0
LINE
  8
0
 10
74
 20
203.3
 11
37
 21
224.662
  0
LINE
  8
0
 10
37
 20
224.662
 11
0
 21
203.3
  0
LINE
  8
0
 10
0
 20
203.3
 11
0
 21
140.3
  0
LINE
  8
0
 10
0
 20
140.3
 11
74
 21
140.3
  0
LINE
  8
0
 10
74
 20
140.3
 11
74
 21
203.3
  0
LINE
  8
0
 10
148.1
 20
203.3
 11
111.1
 21
224.662
  0
LINE
  8
0
 10
111.1
 20
224.662
 11
74.1
 21
203.3
  0
LINE
  8
0
 10
74.1
 20
203.3
 11
74.1
 21
140.3
  0
LINE
  8
0
 10
74.1
 20
140.3
 11
148.1
 21
140.3
  0
LINE
  8
0
 10
148.1
 20
140.3
 11
148.1
 21
203.3
  0
LINE
  8
0
 10
80.1
 20
140.2
 11
40.1
 21
140.2
  0
LINE
  8
0
 10
40.1
 20
140.2
 11
40.1
 21
120.2
  0
LINE
  8
0
 10
40.1
 20
120.2
 11
80.1
 21
120.2
  0
LINE
  8
0
 10
80.1
 20
120.2
 11
80.1
 21
140.2
  0
LINE
  8
0
 10
40
 20
140.2
 11
0
 21
140.2
  0
LINE
  8
0
 10
0
 20
140.2
 11
0
 21
120.2
  0
LINE
  8
0
 10
0
 20
120.2
 11
40
 21
120.2
  0
LINE
  8
0
 10
40
 20
120.2
 11
40
 21
140.2
  0
LINE
  8
0
 10
154.527
 20
130.2
 11
160.3
 21
140.2
  0
LINE
  8
0
 10
160.3
 20
140.2
 11
120.3
 21
140.2
  0
LINE
  8
0
 10
120.3
 20
140.2
 11
120.3
 21
120.2
  0
LINE
  8
0
 10
120.3
 20
120.2
 11
160.3
 21
120.2
  0
LINE
  8
0
 10
160.3
 20
120.2
 11
154.527
 21
130.2
  0
LINE
  8
0
 10
114.426
 20
130.2
 11
120.2
 21
140.2
  0
LINE
  8
0
 10
120.2
 20
140.2
 11
80.2
 21
140.2
  0
LINE
  8
0
 10
80.2
 20
140.2
 11
80.2
 21
120.2
  0
LINE
  8
0
 10
80.2
 20
120.2
 11
120.2
 21
120.2
  0
LINE
  8
0
 10
120.2
 20
120.2
 11
114.426
 21
130.2
  0
LINE
  8
0
 10
120
 20
120.1
 11
0
 21
120.1
  0
LINE
  8
0
 10
0
 20
120.1
 11
0
 21
60.1
  0
LINE
  8
0
 10
0
 20
60.1
 11
120
 21
60.1
  0
LINE
  8
0
 10
120
 20
60.1
 11
120
 21
120.1
  0
LINE
  8
0
 10
240.1
 20
112.476
 11
120.1
 21
112.476
  0
LINE
  8
0
 10
120.1
 20
112.476
 11
120.1
 21
56.288
  0
LINE
  8
0
 10
120.1
 20
56.288
 11
240.1
 21
56.288
  0
LINE
  8
0
 10
240.1
 20
56.288
 11
240.1
 21
112.476
  0
LINE
  8
0
 10
120
 20
60
 11
0
 21
60
  0
LINE
  8
0
 10
0
 20
60
 11
0
 21
0
  0
LINE
  8
0
 10
0
 20
0
 11
120
 21
0
  0
LINE
  8
0
 10
120
 20
0
 11
120
 21
60
  0
LINE
  8
0
 10
240.1
 20
56.188
 11
120.1
 21
56.188
  0
LINE
  8
0
 10
120.1
 20
56.188
 11
120.1
 21
0
  0
LINE
  8
0
 10
120.1
 20
0
 11
240.1
 21
0
  0
LINE
  8
0
 10
240.1
 20
0
 11
240.1
 21
56.188
  0
ENDSEC
  0
SECTION
  2
OBJECTS
  0
DICTIONARY
  0
ENDSEC
  0
EOF
